<?xml version="1.0" encoding="UTF-8"?>
<!DOCTYPE svg PUBLIC "-//W3C//DTD SVG 1.1//EN" "http://www.w3.org/Graphics/SVG/1.1/DTD/svg11.dtd">
<svg version="1.1" xmlns="http://www.w3.org/2000/svg" xmlns:xlink="http://www.w3.org/1999/xlink" x="0" y="0" width="200" height="200" viewBox="0, 0, 200, 200">
  <g id="Layer_1">
    <path d="M100,0 C155.228,0 200,44.772 200,100 C200,155.228 155.228,200 100,200 C44.772,200 -0,155.228 -0,100 C-0,44.772 44.772,0 100,0 z M90.521,117.275 Q86.223,117.275 82.967,119.319 Q79.71,121.362 79.579,126.583 L84.008,126.583 Q84.272,124.394 85.142,123.287 Q86.698,121.283 90.415,121.283 Q93.632,121.283 95.359,122.377 Q97.086,123.471 97.086,125.897 Q97.086,127.084 96.77,127.717 Q96.216,128.877 94.581,129.088 L87.014,130.037 Q83.033,130.538 80.58,132.7 Q78.128,134.862 78.128,138.791 Q78.128,142.377 80.62,144.763 Q83.112,147.149 87.04,147.149 Q90.31,147.149 93.026,145.752 Q95.742,144.354 97.192,142.456 Q97.429,144.143 98.009,145.066 Q99.117,146.806 101.569,146.806 Q102.571,146.806 103.151,146.727 Q103.731,146.648 104.838,146.332 L104.838,142.825 Q104.39,142.904 103.995,142.944 Q103.599,142.983 103.283,142.983 Q102.307,142.983 102.004,142.535 Q101.701,142.087 101.701,141.348 L101.701,125.08 Q101.701,121.072 98.616,119.174 Q95.504,117.275 90.521,117.275 z M96.954,131.83 L96.954,135.653 Q96.955,140.03 92.999,141.955 Q90.653,143.115 88.148,143.115 Q86.091,143.115 84.588,141.928 Q83.085,140.742 83.085,138.685 Q83.085,135.97 85.274,134.73 Q86.566,133.992 89.15,133.649 L92.024,133.28 Q93.342,133.122 94.713,132.753 Q96.084,132.384 96.954,131.83 z M113.724,107.335 L109.11,107.335 L109.11,146.2 L113.487,146.2 L113.487,142.588 Q114.99,144.618 116.308,145.541 Q118.523,147.096 121.74,147.096 Q127.488,147.096 130.731,142.667 Q133.974,138.237 133.974,131.54 Q133.974,124.473 130.691,120.848 Q127.409,117.222 122.135,117.222 Q119.604,117.222 117.442,118.29 Q115.28,119.358 113.724,121.388 L113.724,107.335 z M121.581,121.467 Q125.299,121.468 127.211,124.394 Q129.123,127.321 129.122,131.777 Q129.123,136.787 127.211,139.846 Q125.299,142.904 121.45,142.904 Q116.334,142.904 114.462,138.237 Q113.46,135.759 113.46,131.777 Q113.46,126.266 115.899,123.867 Q118.338,121.468 121.581,121.467 z M72.328,107.467 L67.581,107.467 L67.581,146.2 L72.328,146.2 L72.328,107.467 z M47.332,55.265 Q39.369,55.265 34.359,60.749 Q29.085,66.497 29.085,76.227 Q29.085,85.982 34.491,91.572 Q39.448,96.028 46.329,96.028 Q51.656,96.028 55.11,94.077 Q57.167,92.943 59.829,90.017 L61.095,95 L64.47,95 L64.47,74.275 L47.463,74.275 L47.463,78.626 L59.592,78.626 Q59.513,85.429 56.072,88.474 Q52.631,91.52 47.384,91.52 Q40.529,91.52 37.496,87.182 Q34.464,82.845 34.464,75.937 Q34.464,67.947 38.143,63.913 Q41.821,59.879 47.2,59.879 Q51.735,59.879 54.714,61.817 Q57.694,63.755 58.643,68 L63.837,68 Q62.545,60.406 56.771,57.374 Q52.79,55.265 47.332,55.265 z M158.733,66.128 Q152.774,66.128 149.083,70.373 Q145.391,74.618 145.391,81.421 Q145.391,88.329 149.056,92.165 Q152.721,96.002 157.995,96.002 Q160.157,96.002 161.871,95.58 Q165.061,94.842 167.223,92.732 Q168.515,91.52 169.557,89.608 Q170.598,87.696 170.783,86.141 L166.116,86.141 Q165.588,88.013 164.323,89.437 Q162.108,91.889 158.39,91.889 Q154.409,91.889 152.51,89.291 Q150.612,86.694 150.48,82.396 L171.178,82.396 Q171.178,78.125 170.756,76.174 Q170.282,73.326 168.858,71.19 Q167.381,68.949 164.56,67.538 Q161.739,66.128 158.733,66.128 z M158.443,70.268 Q163.004,70.268 164.956,73.695 Q166.01,75.541 166.3,78.626 L150.612,78.626 Q150.744,74.987 152.958,72.627 Q155.173,70.268 158.443,70.268 z M101.015,66.075 Q96.717,66.075 93.461,68.119 Q90.205,70.162 90.073,75.383 L94.502,75.383 Q94.766,73.194 95.636,72.087 Q97.192,70.083 100.91,70.083 Q104.126,70.083 105.854,71.177 Q107.581,72.271 107.58,74.697 Q107.581,75.884 107.264,76.517 Q106.71,77.677 105.076,77.888 L97.508,78.837 Q93.527,79.338 91.075,81.5 Q88.623,83.662 88.622,87.591 Q88.623,91.177 91.114,93.563 Q93.606,95.949 97.535,95.949 Q100.804,95.949 103.52,94.552 Q106.236,93.154 107.686,91.256 Q107.923,92.943 108.503,93.866 Q109.611,95.606 112.063,95.606 Q113.065,95.606 113.645,95.527 Q114.225,95.448 115.332,95.132 L115.332,91.625 Q114.884,91.704 114.489,91.744 Q114.093,91.783 113.777,91.783 Q112.801,91.783 112.498,91.335 Q112.195,90.887 112.195,90.148 L112.195,73.88 Q112.195,69.872 109.11,67.974 Q105.999,66.075 101.015,66.075 z M107.449,80.63 L107.449,84.453 Q107.449,88.83 103.494,90.755 Q101.147,91.915 98.642,91.915 Q96.585,91.915 95.082,90.729 Q93.58,89.542 93.579,87.485 Q93.58,84.77 95.768,83.53 Q97.06,82.792 99.644,82.449 L102.518,82.08 Q103.836,81.922 105.207,81.553 Q106.579,81.184 107.449,80.63 z M130.863,65.943 Q125.273,65.943 121.661,70.083 Q118.048,74.223 118.048,81.658 Q118.048,87.723 121.344,91.77 Q124.64,95.817 130.177,95.817 Q135.108,95.817 138.272,93.22 Q141.436,90.623 142.227,85.007 L137.613,85.007 Q136.954,88.145 135.227,89.951 Q133.5,91.757 130.546,91.757 Q126.697,91.757 124.904,88.856 Q123.111,85.956 123.111,81.711 Q123.111,77.492 124.376,74.618 Q126.328,70.188 130.863,70.188 Q134.185,70.188 135.688,71.915 Q137.191,73.643 137.613,76.253 L142.227,76.253 Q141.621,70.584 138.628,68.264 Q135.635,65.943 130.863,65.943 z M84.298,66.128 Q81.477,66.128 79.315,68.171 Q77.153,70.215 76.599,71.639 L76.599,66.761 L72.09,66.761 L72.09,95 L76.836,95 L76.836,78.758 Q76.836,75.752 78.761,73.445 Q80.686,71.138 84.272,71.138 Q84.694,71.138 85.05,71.164 Q85.406,71.19 85.828,71.27 L85.828,66.26 Q85.063,66.181 84.746,66.154 Q84.43,66.128 84.298,66.128 z" fill="#5E5E5E"/>
  </g>
</svg>
