<?xml version="1.0" encoding="UTF-8"?>
<!DOCTYPE svg PUBLIC "-//W3C//DTD SVG 1.1//EN" "http://www.w3.org/Graphics/SVG/1.1/DTD/svg11.dtd">
<svg version="1.1" xmlns="http://www.w3.org/2000/svg" xmlns:xlink="http://www.w3.org/1999/xlink" x="0" y="0" width="420.945" height="166.27" viewBox="0, 0, 841.89, 332.541">
  <defs>
    <linearGradient id="Gradient_1" gradientUnits="userSpaceOnUse" x1="121.35" y1="281.391" x2="121.35" y2="32.291">
      <stop offset="0" stop-color="#008FC9"/>
      <stop offset="0.5" stop-color="#6FC6E3"/>
      <stop offset="1" stop-color="#008FC9"/>
    </linearGradient>
    <linearGradient id="Gradient_2" gradientUnits="userSpaceOnUse" x1="406.56" y1="254.261" x2="406.56" y2="132.481">
      <stop offset="0" stop-color="#008FC9"/>
      <stop offset="0.5" stop-color="#6FC6E3"/>
      <stop offset="1" stop-color="#008FC9"/>
    </linearGradient>
  </defs>
  <g id="Layer_1">
    <path d="M178.564,32.289 C186.914,32.289 195.092,32.984 203.034,34.305 L203.034,59.843 C195.165,58.264 186.977,57.429 178.564,57.429 C122.337,57.429 72.245,97.421 72.245,156.841 C72.245,216.262 122.337,256.254 178.564,256.254 C186.977,256.254 195.165,255.419 203.034,253.84 L203.034,279.378 C195.092,280.699 186.914,281.394 178.564,281.394 C108.54,281.394 37.678,230.086 37.678,156.841 C37.678,120.388 53.661,87.792 79.926,65.831 C106.433,43.665 143.392,32.289 178.564,32.289 z M122.612,167.465 L122.612,154.496 C122.612,142.087 127.679,130.817 135.842,122.654 C144.005,114.491 156.847,109.424 169.255,109.424 L205.025,109.424 L205.025,134.564 L170.826,134.564 C165.358,134.564 160.376,136.811 156.759,140.428 C153.141,144.045 150.895,149.027 150.895,154.496 L150.895,167.465 z" fill="url(#Gradient_1)"/>
    <path d="M246.215,132.476 L251.081,132.476 C257.984,132.476 264.453,134.442 269.958,137.848 C272.422,139.371 274.694,141.184 276.727,143.237 L276.727,143.28 C279.808,146.394 282.343,151.647 284.166,155.701 L266.241,168.016 C263.51,162.591 260.306,157.915 253.969,156.581 C251.056,155.973 244.419,156.097 241.682,157.033 C239.57,157.753 237.672,158.966 236.121,160.534 C233.524,163.156 231.912,166.767 231.912,170.727 L231.912,254.261 L209.914,254.261 L209.914,170.727 C209.914,160.633 213.995,149.878 220.569,143.237 C227.143,136.597 236.22,132.476 246.215,132.476 z M336.042,132.476 C350.446,132.476 363.319,139.671 372.487,151.298 C380.011,160.843 385.02,173.472 386.134,187.434 C386.407,190.859 386.336,194.099 386.336,197.501 L386.336,254.261 L364.37,254.261 L364.37,243.756 L364.37,198.093 C364.37,195.187 364.436,192.199 364.218,189.297 C363.484,179.7 360.181,171.171 355.216,164.874 C350.151,158.451 343.358,154.473 336.042,154.473 C328.726,154.473 321.934,158.451 316.868,164.874 C311.213,172.048 307.712,182.113 307.712,193.361 C307.712,204.609 311.213,214.675 316.868,221.849 C321.934,228.274 328.728,232.251 336.042,232.251 C343.358,232.251 350.151,228.274 355.216,221.849 L359.856,214.304 L355.871,249.382 C349.801,252.516 343.106,254.249 336.042,254.249 C321.638,254.249 308.765,247.054 299.597,235.425 C291.023,224.546 285.715,209.663 285.715,193.361 C285.715,177.06 291.023,162.177 299.597,151.298 C308.765,139.671 321.638,132.476 336.042,132.476 z M449.173,132.476 C463.576,132.476 476.449,139.671 485.618,151.298 C488.182,154.551 490.453,158.161 492.377,162.061 L473.947,174.6 C472.47,170.978 470.575,167.702 468.347,164.874 C463.281,158.451 456.488,154.473 449.173,154.473 C441.857,154.473 435.064,158.451 429.999,164.874 C424.344,172.048 420.843,182.113 420.843,193.361 C420.843,204.609 424.344,214.675 429.999,221.849 C435.064,228.274 441.858,232.251 449.173,232.251 C456.487,232.251 463.281,228.274 468.347,221.849 C470.914,218.592 473.037,214.743 474.589,210.453 L493.136,223.068 C491.059,227.579 488.528,231.734 485.618,235.425 C476.449,247.054 463.576,254.249 449.173,254.249 C434.769,254.249 421.896,247.054 412.727,235.425 C404.153,224.546 398.845,209.663 398.845,193.361 C398.845,177.06 404.153,162.177 412.727,151.298 C421.896,139.671 434.769,132.476 449.173,132.476 z M552.875,132.476 C567.279,132.476 580.153,139.671 589.321,151.298 C597.895,162.177 603.203,177.06 603.203,193.361 C603.203,197.086 602.926,200.739 602.395,204.286 C576.828,204.286 551.259,204.286 525.691,204.286 C527.156,211.077 529.955,217.098 533.701,221.849 C538.767,228.274 545.56,232.251 552.875,232.251 C560.19,232.251 566.984,228.274 572.049,221.849 C573.844,219.574 575.418,217.007 576.736,214.203 L595.051,226.66 C593.36,229.801 591.44,232.735 589.321,235.425 C580.153,247.054 567.279,254.249 552.875,254.249 C538.472,254.249 525.598,247.054 516.43,235.425 C507.856,224.546 502.548,209.663 502.548,193.361 C502.548,177.06 507.856,162.177 516.43,151.298 C525.598,139.671 538.472,132.476 552.875,132.476 z M580.146,182.847 C578.707,175.888 575.871,169.721 572.049,164.874 C566.984,158.451 560.191,154.473 552.875,154.473 C545.56,154.473 538.767,158.451 533.701,164.874 C529.88,169.721 527.044,175.888 525.605,182.847 z" fill="url(#Gradient_2)"/>
    <path d="M759.213,195.887 C751.002,195.887 743.664,191.786 738.438,185.157 C734.148,179.716 731.294,172.518 730.659,164.558 C730.503,162.605 730.542,160.758 730.542,158.82 L730.542,99.751 L743.065,99.751 L743.065,132.451 L743.065,158.482 C743.065,160.138 743.027,161.841 743.152,163.496 C743.57,168.967 745.452,173.828 748.283,177.419 C751.171,181.079 755.043,183.347 759.213,183.347 C763.383,183.347 767.256,181.079 770.144,177.419 C773.367,173.328 775.362,167.59 775.362,161.18 C775.362,154.767 773.367,149.029 770.144,144.939 C767.256,141.277 763.383,139.009 759.213,139.009 C755.043,139.009 751.171,141.277 748.283,144.939 C747.273,146.221 746.384,147.665 745.637,149.241 L747.99,129.201 C751.427,127.443 755.217,126.471 759.213,126.471 C767.424,126.471 774.762,130.572 779.99,137.201 C784.876,143.402 787.902,151.887 787.902,161.18 C787.902,170.472 784.876,178.955 779.99,185.157 C774.762,191.786 767.424,195.887 759.213,195.887 z M693.081,126.469 C701.29,126.469 708.628,130.57 713.854,137.197 C718.142,142.639 720.997,149.837 721.632,157.795 C721.789,159.748 721.748,161.594 721.748,163.533 L721.748,195.887 L709.227,195.887 L709.227,189.899 L709.227,163.871 C709.227,162.214 709.264,160.512 709.141,158.857 C708.722,153.388 706.84,148.526 704.009,144.936 C701.122,141.275 697.251,139.008 693.081,139.008 C688.911,139.008 685.037,141.275 682.151,144.936 C678.927,149.026 676.931,154.763 676.931,161.173 C676.931,167.586 678.927,173.322 682.151,177.412 C685.037,181.075 688.911,183.34 693.081,183.34 C697.251,183.34 701.122,181.075 704.009,177.412 C705.019,176.13 705.908,174.686 706.655,173.111 L704.507,193.043 C701.014,194.869 697.153,195.879 693.081,195.879 C684.869,195.879 677.532,191.778 672.306,185.151 C667.419,178.949 664.393,170.466 664.393,161.173 C664.393,151.883 667.419,143.399 672.306,137.197 C677.532,130.57 684.869,126.469 693.081,126.469 z M645.508,191.013 C643.273,189.399 641.237,187.426 639.449,185.157 C635.16,179.716 632.305,172.518 631.67,164.558 C631.607,163.764 631.576,162.988 631.562,162.217 L631.56,162.129 L631.558,162.047 L631.558,162.039 L631.557,161.95 L631.555,161.861 L631.554,161.772 L631.551,161.417 L631.551,161.327 L631.551,161.239 L631.549,161.178 L631.551,161.15 L631.549,161.062 L631.549,160.972 L631.549,160.883 L631.549,160.795 L631.554,158.82 L631.554,99.751 L644.077,99.751 L644.077,132.451 L644.077,158.482 C644.077,160.138 644.039,161.841 644.163,163.496 C644.315,165.497 644.666,167.417 645.186,169.224 L645.198,169.224 C646.1,172.354 647.514,175.142 649.309,177.417 C652.195,181.079 656.068,183.347 660.238,183.347 L660.57,183.342 L660.57,195.884 L660.238,195.887 C654.832,195.887 649.804,194.11 645.508,191.002 z" fill="#EE9C3F"/>
  </g>
</svg>
